<?xml version="1.0" encoding="UTF-8"?>
<svg width="328px" height="352px" viewBox="0 0 328 352" version="1.1" xmlns="http://www.w3.org/2000/svg" xmlns:xlink="http://www.w3.org/1999/xlink">
    <!-- Generator: Sketch 63.1 (92452) - https://sketch.com -->
    <title>quebec</title>
    <desc>Created with Sketch.</desc>
    <g id="Glass-of-wine" stroke="none" stroke-width="1" fill="none" fill-rule="evenodd">
        <g id="Desktop" transform="translate(-567.000000, -291.000000)" fill="#F4E5BC" fill-rule="nonzero">
            <g id="quebec" transform="translate(567.000000, 291.000000)">
                <path d="M78.0687969,347.361246 C77.8873248,347.260253 77.7806377,347.361892 79.3074242,346.186493 C80.3720497,345.367028 80.5088018,345.288174 80.6245308,345.42672 C80.8167696,345.656928 80.7914501,345.73902 80.3396476,346.352229 C79.9756726,346.846188 79.8435027,346.9464 79.2454265,347.181795 C78.5224058,347.466394 78.3152365,347.497979 78.0688479,347.361256 L78.0687969,347.361246 Z M83.2336389,344.53058 C82.9785044,344.480074 82.5928838,344.317066 82.3764684,344.166742 L81.9832653,343.893545 L83.1689266,343.260915 L84.3545879,342.628276 L84.4255153,342.050422 C84.4963407,341.475141 84.5002187,341.469445 85.2592645,340.836439 C85.6790527,340.486722 86.0687146,340.200571 86.1254157,340.200571 C86.1899137,340.200571 86.2279287,340.743215 86.2279287,341.638844 L86.2279287,343.077117 L85.7889034,343.430082 C85.0204483,344.048081 84.0807265,344.640981 83.8859057,344.63086 C83.7821272,344.63086 83.4885183,344.580354 83.2335165,344.531158 L83.2336389,344.53058 Z M86.718777,338.956573 C86.5057907,338.9372 86.3313909,338.897007 86.3313909,338.868477 C86.3313909,338.840043 86.6443696,338.288155 87.0268163,337.642446 C87.6839,336.533331 87.8003332,336.397234 89.1444331,335.171492 C90.2580445,334.155969 90.6114569,333.884642 90.7731101,333.921751 C90.9243437,333.956739 90.9794017,334.044758 90.9787744,334.252962 C90.9780036,334.497677 90.8648667,334.618092 90.1581746,335.123829 L89.3383456,335.710753 L89.2712963,336.261821 C89.2067982,336.785814 89.1561285,336.866866 88.2287144,337.917445 C87.6922378,338.525091 87.2203103,339.015475 87.1798052,339.006993 C87.1392898,338.994077 86.9320083,338.975957 86.7188893,338.956487 L86.718777,338.956573 Z M80.433384,343.929998 C80.2932845,343.721535 80.1576142,343.521485 80.1320497,343.485369 C80.0903097,343.427056 80.1522564,343.316781 80.7021836,342.461364 L81.3188949,341.502843 L82.2036505,340.670164 L83.0884061,339.837359 L83.4025176,339.856829 C83.5753866,339.869745 83.9989712,339.886612 84.3438417,339.898275 C84.6887019,339.911191 85.0077528,339.929311 85.0526769,339.939721 C85.124829,339.956589 84.8663879,340.221207 82.9185273,342.127106 L80.6953868,344.302347 C80.6953868,344.302347 80.5738917,344.138559 80.4332922,343.930104 L80.433384,343.929998 Z M74.9236001,346.433048 C73.9989823,345.515569 73.9932876,345.509091 73.80856,345.149668 L73.622771,344.788557 L74.0367422,344.241894 L74.4505806,343.695366 L74.4062893,342.927304 C74.3822046,342.50495 74.3531192,342.107839 74.3430159,342.044783 L74.3240339,341.930836 L76.1058937,342.083492 C77.3898328,342.193545 78.00634,342.2601 78.3119912,342.321479 C78.9393262,342.44707 78.8813597,342.399166 78.9392038,342.840296 L78.9885978,343.219537 L79.2730933,343.483153 L79.5575887,343.746768 L79.6297408,344.057652 L79.7018928,344.368526 L77.8116519,345.8521 C76.7720296,346.668076 75.9060008,347.340301 75.8870188,347.345795 C75.8680368,347.345795 75.4344509,346.940916 74.9232939,346.433742 L74.9236001,346.433048 Z M264.560017,283.508365 C263.48937,283.129394 265.660565,280.908061 266.751214,281.266617 C267.308826,281.449982 267.424882,282.473949 266.907642,282.648023 C266.735529,282.705854 266.594674,282.899735 266.594674,283.078598 C266.594674,283.523758 265.347678,283.787113 264.560027,283.508307 L264.560017,283.508365 Z M260.977723,294.465533 L260.125492,293.768421 L260.125492,292.290919 C260.125492,290.824598 260.125492,290.811778 260.7465,290.587874 C261.206028,290.420846 261.401553,290.202551 261.498749,289.748081 C261.581004,289.360811 261.782999,289.091364 262.043951,289.018728 C262.271633,288.955306 262.567007,288.679102 262.700269,288.404999 C262.833664,288.130896 263.442905,287.517688 264.054217,287.042485 C264.665601,286.567302 265.51971,285.852021 265.952316,285.453175 C266.384892,285.054282 266.828091,284.727918 266.937432,284.727918 C267.046272,284.727918 267.504402,285.058889 267.954694,285.463431 L268.773513,286.198943 L267.6996,287.14103 C266.637526,288.072756 266.619973,288.079754 266.095927,287.778451 C265.41037,287.384453 265.405063,287.385485 265.05957,287.977334 C264.575365,288.806514 264.411988,290.370311 264.771533,290.734072 C265.047803,291.013486 266.243864,293.890234 266.123236,293.985174 C266.095376,294.00715 265.426158,294.280636 264.635598,294.593592 C262.692187,295.362946 262.047411,295.340295 260.977887,294.465408 L260.977723,294.465533 Z M242.679473,258.22437 C239.595406,257.943858 236.483887,257.381098 235.764816,256.973857 C235.045857,256.566597 233.840489,256.233381 233.086311,256.233381 C232.183329,256.233381 230.956448,255.437454 229.494629,253.903344 C228.273657,252.621795 226.843781,251.573307 226.317489,251.573307 C225.791014,251.573307 224.877305,251.189719 224.286822,250.720917 C223.624166,250.194938 221.639852,249.74202 219.104733,249.538163 C216.845057,249.356466 214.827045,249.059346 214.620182,248.87789 C214.147621,248.463333 216.597985,245.507944 217.730374,245.126737 C218.193311,244.970851 223.642454,245.084809 229.83906,245.38002 L241.105803,245.916688 L243.810535,247.652698 C246.818674,249.583407 250.472609,251.055415 252.257224,251.055415 C252.901275,251.055415 253.941112,251.627322 254.567927,252.326362 C255.194639,253.025363 256.07567,253.473356 256.525931,253.321741 C257.98673,252.829969 259.241992,256.120985 258.16165,257.610439 C257.527977,258.484044 249.175198,258.815169 242.679064,258.224274 L242.679473,258.22437 Z M73.8619546,351.082712 C73.8619546,349.837115 74.9949357,349.206943 78.123906,348.711615 C79.3318151,348.520375 81.0966318,347.790762 82.0458345,347.090209 C82.994884,346.389472 84.2704037,345.816274 84.8801753,345.816274 C86.3271965,345.816274 88.2837724,342.6791 87.7524802,341.210754 C87.4651987,340.416793 87.6112377,340.120628 88.289712,340.120628 C88.8323832,340.120628 89.8858338,338.931802 90.813401,337.272709 C91.8276221,335.458723 92.7756919,334.424982 93.4252645,334.424982 C93.9861523,334.424982 95.0159775,333.551262 95.7136174,332.483285 C96.6087519,331.113157 98.4877465,329.73339 102.096472,327.796416 C104.909279,326.286721 108.937242,323.787333 111.047307,322.242554 C115.956504,318.648317 120.055904,316.250714 125.107262,314.019087 C127.920988,312.776092 130.441105,311.057817 133.471083,308.316598 C135.856183,306.158803 138.294045,304.393299 138.888304,304.393299 C139.640176,304.393299 139.969054,304.009268 139.969054,303.131316 C139.969054,302.249827 140.945689,301.117811 143.207834,299.377368 C145.958389,297.261211 146.449574,296.612244 146.466005,295.073248 C146.482435,293.482685 147.211926,292.611644 152.424519,287.953787 C157.26779,283.625763 158.681541,282.64648 160.085904,282.64648 C161.344126,282.64648 161.80796,282.398007 161.80796,281.723825 C161.80796,280.672253 172.457277,272.808499 173.881948,272.808499 C174.383369,272.808499 174.793656,272.575505 174.793656,272.290713 C174.793656,272.00594 175.442004,271.772927 176.23435,271.772927 C177.026849,271.772927 177.842514,271.535508 178.046928,271.24529 C178.251444,270.955091 179.794294,270.108995 181.475733,269.365183 C183.157069,268.621285 184.674304,267.820018 184.847285,267.584547 C185.020286,267.349066 187.278003,266.302323 189.864353,265.258462 C194.893055,263.22886 202.206742,261.591743 208.437128,261.100752 C211.857973,260.831189 212.689405,260.966467 216.110249,262.349048 C219.574568,263.749249 223.78337,266.518999 223.78337,267.398715 C223.78337,267.588036 223.119326,267.59673 222.307672,267.418185 C221.054145,267.142173 220.832178,267.272458 220.832178,268.284098 C220.832178,269.150223 221.351183,269.646804 222.735788,270.105216 L224.639296,270.735581 L223.325863,271.542583 C222.496033,272.052494 222.01243,272.887265 222.01243,273.810162 C222.01243,275.396869 220.733492,276.672925 219.523848,276.293164 C218.336145,275.920255 216.700426,276.887654 216.700426,277.962956 C216.700426,278.788763 211.769186,284.160484 209.912623,285.357021 C208.869632,286.029207 207.187785,285.780801 205.455422,284.698752 C202.27818,282.714066 200.366508,282.415366 197.62524,283.475516 C196.267414,284.00057 194.990618,284.636294 194.787735,284.888151 C194.58474,285.139998 194.237094,285.088181 194.014984,284.773046 C193.430297,283.943037 191.319947,284.068676 191.319947,284.9335 C191.319947,285.336943 190.191231,285.996928 188.811464,286.400111 C186.806208,286.986128 186.228073,287.436357 185.930076,288.643882 C185.72505,289.47474 185.525851,289.860564 185.487377,289.501159 C185.405121,288.737753 180.648392,289.202709 180.028007,290.034733 C179.533679,290.697667 175.400479,289.501419 174.996856,288.578725 C174.618961,287.714971 168.904855,288.1372 168.005352,289.095345 C167.68074,289.441178 166.684776,289.883609 165.792009,290.078579 C164.194867,290.427526 164.168843,290.49783 164.168843,294.464049 C164.168843,298.339637 164.095466,298.556216 162.250639,300.088369 C161.195505,300.964808 159.313734,301.967223 158.068678,302.315755 C155.947183,302.909927 155.703478,302.864356 154.18706,301.589765 C152.621453,300.273999 152.537156,300.260891 151.581116,301.187604 C151.037802,301.7142 150.593215,302.711564 150.593215,303.403713 C150.593215,304.101606 150.06725,304.95042 149.41286,305.308976 C148.763502,305.66465 148.232301,306.319584 148.232301,306.76431 C148.232301,307.209064 146.505755,309.745145 144.39569,312.400196 C140.892896,316.807353 140.55918,317.457477 140.55918,319.871755 C140.55918,321.786754 140.332386,322.516107 139.736943,322.516107 C138.706097,322.516107 138.198175,323.643342 138.198175,325.931066 C138.198175,326.90842 137.893055,328.136572 137.520089,328.660623 C137.020189,329.362651 137.012096,330.041642 137.489677,331.241938 C138.098285,332.773513 137.962492,333.061322 135.216632,336.062977 C133.610509,337.818553 132.296362,339.537791 132.296362,339.883335 C132.296362,340.229043 131.897964,340.801856 131.410974,341.156402 C130.870701,341.549754 130.525585,342.684507 130.525585,344.067551 C130.525585,345.757873 130.29576,346.334166 129.621725,346.334166 C129.124611,346.334166 128.574959,346.007619 128.400447,345.608562 C128.225792,345.209389 127.570106,344.76527 126.943323,344.621376 C126.096021,344.427023 125.803687,344.621376 125.803687,345.402517 C125.803687,346.093413 125.519314,346.34926 124.960325,346.160999 C124.496368,346.004853 123.186425,345.724013 122.049137,345.536783 C120.139915,345.222671 120.007142,345.282748 120.316672,346.321163 C120.50094,346.939682 120.304017,348.360693 119.887015,349.478867 L119.122111,351.511939 L99.2308004,351.511939 C88.2906304,351.511939 78.1066793,351.66019 76.6003649,351.841203 C74.0924942,352.142757 73.8619546,352.07892 73.8619546,351.082847 L73.8619546,351.082712 Z M50.9152338,341.649697 C49.9291081,340.47957 49.1572546,340.120532 47.6275699,340.120532 C46.528144,340.120532 45.5400589,340.342971 45.4317798,340.614876 C45.3166222,340.90309 44.4969157,340.817509 43.4643861,340.409526 C42.4905375,340.024579 41.1845037,339.561569 40.5620774,339.380412 C39.6996002,339.129355 39.5943112,338.907291 40.1193884,338.446614 C41.3813859,337.339524 40.8317751,335.690647 38.5489841,333.735166 C37.0728776,332.470774 35.5218636,331.690432 34.0753527,331.484552 C32.4059562,331.246825 31.1254869,330.486956 28.8711179,328.395956 C26.5964402,326.285969 25.4723173,325.622543 24.1724578,325.622543 C23.232787,325.622543 21.4784409,325.18711 20.2740017,324.654827 C19.0695624,324.12267 16.3575841,323.428314 14.2475192,323.111879 C10.8159594,322.597197 10.1808784,322.303026 8.23226271,320.325647 C6.87657971,318.949639 5.90176158,317.332474 5.65142355,316.043503 C5.43021168,314.904316 4.30257815,312.341314 3.14579805,310.347857 C1.36516292,307.279503 0.230936719,303.637362 0.000739522701,300.251416 C-0.0275656178,299.824262 0.760218469,290.154975 1.75204897,278.763105 C2.7437468,267.372199 4.26839012,249.546559 5.14003183,239.152285 C6.01187766,228.75801 6.95485499,219.419164 7.23570712,218.399399 C7.64815765,216.902234 8.13248469,216.441702 9.75429345,216.005073 C10.8586179,215.707731 12.0297876,215.609871 12.356768,215.787597 C12.6837893,215.965333 13.1440725,217.275798 13.3797556,218.699709 C14.1502313,223.355349 15.4541016,224.35709 16.6400691,221.204591 C17.1990689,219.718606 17.1969258,218.539612 16.6274144,215.756368 L15.9038936,212.204541 L19.3041229,208.462063 C23.7465259,203.572494 23.4789408,203.957074 23.9144045,201.832821 C24.2805328,200.046691 24.1796628,199.912618 21.0401605,198.015836 L17.7863785,196.050043 L17.7863785,192.116912 C17.7863785,189.95372 17.4942902,183.768915 17.1373978,178.373222 C16.4884171,168.564012 16.487917,168.562084 14.544006,165.92978 C13.0399367,163.893143 12.517217,162.52475 12.2352423,159.886085 L11.8707673,156.475078 L16.1566197,155.023118 C23.3226352,152.595538 35.2437465,145.989912 39.7106424,141.97148 C43.871785,138.228327 48.8726265,132.151667 49.3491158,130.259608 C49.5064216,129.634757 50.3146062,125.989705 51.145059,122.159516 L52.6548433,115.195429 L50.7930754,107.143722 C48.8369077,98.6834345 48.5756499,98.1163953 42.3063814,88.7137411 C39.2634425,84.1500534 38.3093413,83.1713492 34.5101836,80.7162031 C30.6579579,78.2267437 30.1811624,77.731512 30.1811624,76.2183471 C30.1811624,74.7500016 30.5102146,74.3707224 32.5919799,73.4390547 C34.370574,72.6430696 35.3080404,71.7546117 36.1672315,70.0506023 C36.9094792,68.5785942 38.1757529,67.2510688 39.6590031,66.390052 C42.0943136,64.9762611 42.3171991,64.6647413 41.4717852,63.8563513 C41.1889328,63.5858053 41.0874301,61.9142684 41.2465116,60.1418249 C41.5294967,56.9868196 41.5615109,56.935253 42.777421,57.6823415 C44.3540506,58.6511179 44.9371861,58.6474552 44.9371861,57.6688474 C44.9371861,57.2200931 45.4712542,56.8921588 46.2020412,56.8921588 C47.413216,56.8921588 47.4535273,56.7217386 47.1533666,52.8792211 C46.9232862,49.9344338 46.3997195,48.0791947 45.1863811,45.9088695 C43.62557,43.1171433 43.5888306,42.8972866 44.5301853,41.9847997 C45.7368697,40.8150583 45.8221867,39.8052214 44.714321,39.8052214 C44.2672028,39.8052214 43.5664196,39.45134 43.1572858,39.0188171 C42.5508309,38.377734 42.5919586,38.0592745 43.3801509,37.2952413 C44.6188802,36.0944637 44.6018373,35.666895 43.3143262,35.646654 C42.7462232,35.6379792 41.8003577,35.0506796 41.2122215,34.3421649 C40.1517802,33.0644711 40.1602507,33.0363263 42.2452103,30.8996399 C44.1352472,28.9627618 44.347315,28.4396745 44.347315,25.7156114 C44.347315,23.4634544 44.580804,22.6071605 45.25738,22.3794966 C45.7580356,22.2109945 46.0967013,21.6940567 46.0098841,21.2307674 C45.9238527,20.7674396 46.0440721,20.1205926 46.278306,19.7932655 C46.5283787,19.443972 45.8218193,18.5184633 44.5676798,17.5523857 C43.1168827,16.434982 42.1947243,15.1298182 41.6955791,13.4873995 C40.9619345,11.0734103 40.9672515,11.0564464 44.2003881,5.53410274 L47.4403929,0 L50.1730882,0.947002801 C51.6760349,1.46784422 55.9602544,2.98682125 59.6934854,4.32244306 C65.5074917,6.4024545 67.4257975,6.83195084 73.065598,7.31619447 L79.6497025,7.88150842 L82.7021324,5.63966476 L85.7543582,3.3978211 L87.6740927,5.161879 C88.7299415,6.13210121 93.3578784,10.3360761 97.9580566,14.5040991 C105.258069,21.1177258 106.32249,22.2980697 106.32249,23.7789453 C106.32249,25.8918244 109.41666,30.2590773 111.212909,30.6815375 C111.931746,30.8506276 116.301313,30.9921416 120.923025,30.996026 L129.325932,31.002773 L131.383746,32.9444704 C132.515523,34.0124281 133.448805,35.1468922 133.457581,35.4656409 C133.470236,35.7843511 132.286718,37.8827145 130.836125,40.1287027 L128.19885,44.2122915 L131.343128,54.5651195 C133.072532,60.2591267 135.050335,65.7439762 135.738382,66.7541022 C137.135907,68.8051978 139.727462,70.66969 141.825281,71.1334998 C142.702699,71.3275153 144.235078,72.8106175 145.994894,75.1692811 C147.525191,77.2201839 150.62875,80.5079128 152.891487,82.4751526 L157.005685,86.0520397 L158.667631,85.1008923 C163.362005,82.4142269 166.902559,79.8675141 166.694063,79.3276557 C166.503589,78.8345157 169.012215,73.7875771 169.846709,72.9848739 C169.970735,72.8651045 170.672866,73.2613477 171.405888,73.8654185 L172.738609,74.9637378 L175.387722,69.302309 C177.989074,63.7429531 178.071329,63.6407839 179.955141,63.6323019 C182.12705,63.6219886 182.121029,63.6313381 181.183869,61.8269908 C180.595263,60.6937797 180.660057,60.392766 181.626568,59.7702084 C182.714666,59.0692889 182.695888,59.0198621 181.144639,58.5002255 C179.398396,57.9153452 177.604392,54.9429047 178.459501,54.0512372 C178.736149,53.7627729 179.351717,53.0607739 179.827737,52.4911322 C180.692878,51.4555602 180.692878,51.4555602 181.610311,52.4911322 C182.468992,53.4604869 182.519866,53.3446598 182.405963,50.6788812 C182.307277,48.3674468 182.641361,47.2128381 184.179863,44.5484379 C185.59239,42.1025449 185.979378,40.8817189 185.698322,39.7589176 C185.14768,37.5595801 186.049264,37.9063772 188.563891,40.8611887 C189.963253,42.5054387 191.881661,46.0864704 193.751797,50.5450974 C196.630736,57.4085568 196.859336,57.7541973 201.418795,62.1355226 C205.344295,65.9075915 206.058876,66.8595968 205.756797,67.9153134 C205.503938,68.7992219 205.674541,69.2732968 206.324533,69.4920932 C206.887196,69.6815207 207.253702,70.4240019 207.253702,71.3745132 C207.253702,72.9135096 208.007594,73.450862 208.7294,72.4263744 C208.929987,72.1415825 209.497212,71.9085981 209.989867,71.9085981 C210.64391,71.9085981 210.840322,72.3702873 210.717695,73.6190653 C210.47597,76.0800909 212.413523,78.1379335 216.641409,79.9106662 C220.811022,81.6589168 221.074321,82.4382945 219.030795,86.9860786 C218.366374,88.4650265 217.939635,89.9427214 218.082766,90.2698557 C218.225896,90.5969515 219.499885,91.1931572 220.914147,91.5947787 C222.465876,92.0354172 224.808827,93.4226441 226.823166,95.0933039 L230.160938,97.8616083 L228.741369,100.926107 C226.885929,104.931912 226.948692,106.392161 229.181915,111.167127 C231.510886,116.146625 231.778369,116.438482 234.012225,116.438482 C235.264119,116.438482 236.215771,116.856209 237.046693,117.770344 C237.971179,118.787314 239.414954,119.338642 243.154207,120.102502 C245.847407,120.652645 248.727876,120.953764 249.55492,120.771652 C250.975101,120.458957 251.018066,120.507381 250.325263,121.642819 C249.669955,122.716945 249.766519,122.96726 251.231787,123.992229 C252.677175,125.003319 252.828113,125.378261 252.504602,127.153692 C252.140883,129.149559 252.161253,129.175679 254.721314,130.008166 C257.033751,130.759968 257.439007,130.766127 258.577315,130.066672 C260.456534,128.911967 262.590276,129.59706 263.747974,131.726826 C264.285839,132.716133 264.919858,133.525486 265.157031,133.525486 C265.394327,133.525486 266.42403,132.59992 267.445384,131.468608 L269.302356,129.411729 L274.084394,132.013575 C281.267758,135.921933 280.56522,135.788921 283.275259,133.753921 L285.6773,131.950249 L287.165347,133.255605 C287.983655,133.973537 289.224997,134.560962 289.92376,134.560962 C290.843448,134.560962 291.094623,134.788665 290.833447,135.385738 C290.635003,135.839379 290.313044,136.768492 290.117897,137.450327 C289.857955,138.359017 288.039264,139.55617 283.307947,141.932858 C276.486567,145.359479 276.395739,145.467914 277.758872,148.555352 C278.003373,149.108984 277.258462,149.78148 275.275291,150.797485 C273.717235,151.595726 272.017018,152.899183 271.496952,153.693983 C270.790382,154.774085 269.803369,155.296594 267.589617,155.762524 C264.707923,156.368976 264.618728,156.444331 264.29583,158.547504 C263.258861,165.300987 263.198139,166.663693 263.934386,166.663693 C265.239144,166.663693 276.950331,156.150864 278.380105,153.696875 C279.315989,152.08954 280.8743,150.652424 283.299507,149.160175 C285.251593,147.958915 287.437994,146.139725 288.15829,145.11755 L289.467538,143.259034 L293.366709,143.601715 C296.599978,143.885862 297.499378,144.182191 298.633298,145.336857 C299.835799,146.561346 299.960508,147.097253 299.666593,149.779195 C299.391967,152.284944 299.512696,152.944803 300.343414,153.477625 C301.216781,154.037831 301.87167,153.710455 305.150354,151.07501 C307.238069,149.396832 309.404875,148.023812 309.965559,148.023812 C310.526202,148.023812 312.327187,148.548085 313.967804,149.18883 C317.218627,150.458524 321.154945,154.23734 321.164844,156.097881 C321.164844,156.694048 321.723088,158.558039 322.39847,160.240168 C323.17857,162.183119 323.606584,164.472963 323.572191,166.518854 C323.524124,169.369086 323.679756,169.832318 324.926956,170.549044 C325.994847,171.162841 326.431842,172.012667 326.732492,174.059907 C326.950683,175.545506 327.420202,177.480938 327.775686,178.360943 C328.408971,179.928084 328.244828,180.148423 319.779361,189.089677 C315.025694,194.110523 311.136321,198.63344 311.136321,199.140816 C311.136321,199.838006 308.997375,200.854946 302.36704,203.310189 C293.809826,206.478881 293.532138,206.631363 290.892108,209.613741 C288.976047,211.778091 288.030927,213.420798 287.653532,215.242495 C287.303099,216.933685 285.854425,219.611965 283.424931,223.060369 C278.873331,229.521032 276.238097,231.350536 270.869249,231.777719 C268.900121,231.934346 265.023912,232.842592 262.255294,233.796043 L257.221489,235.529643 L246.211923,235.529643 C235.427895,235.529643 235.174802,235.554414 233.90219,236.742854 C232.653664,237.908644 231.963168,237.992596 216.239735,238.889854 C200.187689,239.80585 199.812131,239.852944 196.493341,241.36794 C193.649509,242.666453 192.631012,242.871852 190.097423,242.658357 L187.083978,242.404331 L184.680917,245.050996 C181.997003,248.006868 178.339088,254.495868 178.318983,256.336842 C178.306329,256.996257 177.814154,258.096851 177.213128,258.782638 C176.255475,259.875464 175.521994,260.059947 171.275228,260.275562 C166.10906,260.537906 164.63775,261.376291 166.851603,262.796444 C167.914596,263.478211 167.895104,263.56144 166.357275,264.910383 L164.756561,266.314632 L164.756561,265.118288 C164.756561,263.336784 163.520689,264.012065 162.030907,266.607742 C161.314469,267.856134 158.595367,270.636197 155.988708,272.785703 C151.636419,276.374639 151.164012,276.965293 150.20593,280.015141 C149.446977,282.431539 148.57909,283.842246 147.020218,285.193 C145.842007,286.214211 144.279053,288.376632 143.547123,289.998617 C142.815121,291.620506 141.178862,294.167411 139.910741,295.658407 C138.642824,297.149211 137.605243,298.655147 137.605243,299.004739 C137.605243,299.354457 136.450402,300.885135 135.039099,302.4063 C133.627593,303.927561 132.061373,305.871187 131.558452,306.725553 C130.540179,308.455297 116.565724,317.014766 113.746998,317.635492 C112.808082,317.842144 111.655302,318.651209 111.117275,319.4809 C110.590422,320.293512 109.728424,320.959848 109.201724,320.961583 C108.675004,320.961583 106.57986,322.131806 104.546131,323.558031 C101.842521,325.453945 100.650532,326.007394 100.113015,325.61597 C99.5894482,325.234917 99.2835622,325.296411 99.0502264,325.82961 C98.870132,326.241477 97.1498821,327.515595 95.2274942,328.660661 C90.9973632,331.180675 85.1025302,336.413668 85.0859975,337.663506 C85.0733428,338.246806 84.6147027,338.569593 83.7840968,338.569593 C83.0746289,338.569593 81.9459034,339.016815 81.2756138,339.563623 C79.6137694,340.9191 74.9028628,341.161029 73.4001202,339.967856 C72.7916345,339.484894 71.1189111,338.88679 69.6828097,338.638789 C68.2468103,338.39071 66.8062185,338.10534 66.4815853,338.004597 C66.1569725,337.903604 65.2273438,338.192993 64.4157097,338.646943 C63.6041063,339.100892 61.0144599,339.896685 58.6607925,340.415242 C56.3072272,340.933934 54.3815736,341.538043 54.3815736,341.7579 C54.3815736,341.977756 53.8911642,342.387946 53.2916388,342.669432 C52.4106795,343.082986 51.9545295,342.887862 50.9129682,341.652077 L50.9152338,341.649697 Z" id="path3265-6"></path>
            </g>
        </g>
    </g>
</svg>